<svg width="3078" height="2810" viewBox="0 0 3078 2810" fill="none" xmlns="http://www.w3.org/2000/svg">
<path d="M1223.7 2809C1186.7 2809 1149.7 2808 1112.6 2805.9C841.404 2791 580.704 2722.1 337.704 2601.3C267.904 2566.4 187.304 2551.8 97.9043 2557.7H96.8043L96.9043 2554.6C102.404 2436 107.604 2323.9 91.4043 2207.3C81.3043 2134 67.2043 2058.8 53.6043 1986.1C27.1043 1844.7 -0.395688 1698.4 0.00431178 1557.1C0.404312 1398.3 36.6043 1263.3 110.704 1144.4C325.004 802 420.304 506.7 410.604 215.1C404.804 78.8 395.904 2.10002 395.804 1.30002L395.604 0L396.904 0.200012C543.904 19.9 679.904 65.2 823.804 113.1C874.804 130.1 927.504 147.6 980.204 163.7C1142.7 215.9 1304.7 175.3 1461.3 136C1526 119.8 1593 103 1659.7 92.7C1978.4 42.2 2266.6 96.2 2610.4 171.9C2632.6 176.9 2656.4 178.6 2679.4 180.3C2719.2 183.1 2756.8 185.8 2782.8 204.9C2802 218.3 2804 253.4 2806.1 290.5C2807 307 2808 324 2810.5 339.3C2814.6 372.1 2821.5 403.3 2828.2 433.5C2834.9 463.7 2841.9 495 2846 527.8C2875 706.8 2912.8 869.8 2952.7 1042.4C2979.4 1158 3007.1 1277.5 3031.7 1401.5C3084.7 1664.1 3119 1968.4 2971.5 2235.1C2899.5 2365.7 2820.2 2501.3 2711.9 2598.6C2567.5 2726 2370.9 2706.7 2180.8 2688C2126.7 2682.7 2070.8 2677.2 2017.6 2675.3C1974.3 2672.2 1937.8 2676.7 1906 2688.9C1685.1 2768.8 1456.1 2809.1 1223.8 2809.1L1223.7 2809ZM136.104 2554.4C210.704 2554.4 278.604 2569.5 338.604 2599.5C822.504 2840.1 1393.5 2871.9 1905.2 2686.8C1937.3 2674.5 1974 2670 2017.6 2673.1C2070.8 2674.9 2126.8 2680.4 2180.9 2685.8C2370.6 2704.5 2566.7 2723.8 2710.4 2596.9C2818.5 2499.9 2897.7 2364.4 2969.6 2234C3116.8 1967.9 3082.5 1664 3029.6 1401.8C3005 1277.8 2977.4 1158.3 2950.6 1042.7C2910.7 870.1 2872.9 707 2843.9 527.9C2839.8 495.1 2832.9 463.9 2826.2 433.7C2819.5 403.5 2812.5 372.2 2808.4 339.4C2805.8 324 2804.9 306.9 2803.9 290.4C2801.8 253.8 2799.9 219.2 2781.5 206.3C2755.9 187.6 2718.6 184.9 2679.1 182.1C2656 180.5 2632.1 178.8 2609.8 173.7C2266.3 98 1978.2 44.1 1659.9 94.5C1593.3 104.8 1526.4 121.6 1461.7 137.8C1304.8 177.2 1142.5 217.8 979.504 165.5C926.704 149.4 874.004 131.8 823.104 114.9C679.704 67.2 544.204 22.1 397.904 2.30002C399.104 13 407.204 88.2 412.604 214.9C417.904 373.9 392.604 531.3 335.304 696.3C286.304 837.2 213.404 984.1 112.304 1145.6C-52.4957 1410.1 2.40431 1702.8 55.5043 1985.9C69.1043 2058.6 83.2043 2133.8 93.3043 2207.2C109.604 2324 104.404 2436.2 98.9043 2554.9V2555.8C111.404 2555 123.804 2554.6 136.104 2554.6V2554.4Z" fill="#BAD2FF" fill-opacity="0.25"/>
<path d="M1264.11 2724.6C1196.91 2724.6 1129.31 2721.7 1061.41 2715.8C801.005 2693.3 541.005 2628.1 288.605 2522.2C235.605 2500.5 173.805 2491.7 99.7051 2495.3V2493.3C174.005 2489.7 236.105 2498.5 289.405 2520.3C811.405 2739.5 1353.21 2782 1856.21 2643.1C1927.51 2624.6 2002.11 2620.9 2077.81 2632.2C2301.21 2664.5 2536.31 2686.7 2740.71 2575.2L2741.71 2577C2536.81 2688.8 2301.21 2666.6 2077.51 2634.2C2002.01 2623 1927.71 2626.7 1856.71 2645.1C1665.11 2698 1466.51 2724.6 1264.11 2724.6Z" fill="#BAD2FF" fill-opacity="0.25"/>
<path d="M1296 2639.4C956.604 2639.4 621.504 2583 294.104 2470.3C228.204 2447.4 159.304 2442.9 100.504 2441.5V2439.5C159.504 2440.9 228.604 2445.4 294.804 2468.4C807.204 2644.7 1339 2683.3 1875.4 2583C1923.1 2571.8 1970.7 2575 2015 2580.3C2028.5 2582.5 2041.9 2584.7 2055.3 2586.9C2293.7 2625.9 2540.3 2666.1 2759.9 2540.9L2760.9 2542.7C2540.7 2668.3 2293.8 2627.9 2055 2588.9C2041.6 2586.7 2028.1 2584.5 2014.7 2582.3C1970.6 2577.1 1923.3 2573.9 1875.8 2585C1681.7 2621.3 1488.2 2639.4 1296.1 2639.4H1296Z" fill="#BAD2FF" fill-opacity="0.25"/>
<path d="M2434.9 2596.3C2429.5 2596.3 2424.1 2596.3 2418.7 2596.2C2293.8 2594 2163.8 2567.7 2038 2542.3C2018.4 2538.3 1998.8 2534.4 1979.1 2530.5C1940.5 2522.2 1905 2519.6 1867.4 2522.3C1835.3 2524.6 1802.6 2530.9 1770.9 2536.9C1727.3 2545.3 1682.2 2553.9 1637.9 2552.3C1567.5 2550.2 1495.9 2548.8 1426.7 2547.3C1038.7 2539.4 637.504 2531.1 250.504 2412.9C203.204 2399.8 154.804 2396.8 101.004 2394.5V2392.5C155.004 2394.8 203.504 2397.8 251.004 2411C637.804 2529.1 1038.8 2537.3 1426.7 2545.3C1496 2546.7 1567.6 2548.2 1638 2550.3C1682.1 2551.9 1727.1 2543.3 1770.6 2534.9C1802.3 2528.8 1835 2522.5 1867.3 2520.2C1905.1 2517.5 1940.8 2520.2 1979.5 2528.4C1999.1 2532.3 2018.7 2536.3 2038.3 2540.2C2289.1 2590.9 2548.5 2643.4 2781.4 2506.2L2782.4 2508C2681.7 2567.3 2567.8 2596.3 2434.8 2596.3H2434.9Z" fill="#BAD2FF" fill-opacity="0.25"/>
<path d="M2468.6 2559.9C2460.2 2559.9 2451.7 2559.8 2443.1 2559.5C2319.1 2555.9 2190.4 2527.4 2066.1 2499.8C2011.6 2487.7 1955.3 2475.2 1899.9 2464.9C1841.8 2453.3 1784.2 2460.4 1728.6 2467.2C1679.6 2473.2 1628.9 2479.5 1577.8 2473.1C1396.7 2454.8 1214.7 2450.6 1038.7 2446.6C925.504 2444 808.504 2441.3 693.104 2434.9C528.404 2425.9 375.604 2396.7 247.804 2369.3C199.704 2358.6 150.304 2352.9 101.004 2352.4V2350.4C150.504 2350.9 200.004 2356.6 248.204 2367.3C375.904 2394.7 528.604 2423.8 693.104 2432.8C808.504 2439.2 925.504 2441.9 1038.7 2444.5C1214.7 2448.6 1396.8 2452.7 1577.9 2471C1628.8 2477.4 1679.4 2471.1 1728.2 2465.1C1784 2458.2 1841.8 2451.1 1900.2 2462.8C1955.6 2473.1 2011.9 2485.6 2066.4 2497.7C2314.5 2552.8 2571 2609.7 2805.5 2470.5L2806.5 2472.3C2707.5 2531.1 2596.6 2559.8 2468.4 2559.8L2468.6 2559.9Z" fill="#BAD2FF" fill-opacity="0.25"/>
<path d="M2477.7 2524.2C2456.3 2524.2 2434.5 2523.4 2412.3 2521.9C2286.5 2513.2 2146.6 2479.4 1984.4 2418.4C1953 2406.3 1916.4 2397.4 1872.7 2391.1C1829.1 2385.7 1784.7 2388.4 1741.8 2391.1C1698.8 2393.8 1654.3 2396.6 1610.5 2391.1C1328.6 2354.4 1046.7 2358.2 774.104 2361.9C721.704 2362.6 667.404 2363.3 613.904 2363.8C515.004 2365.4 415.404 2351.4 319.004 2337.9C247.504 2327.9 173.604 2317.5 100.404 2313.5V2311.5C173.804 2315.5 247.804 2325.9 319.304 2335.9C415.604 2349.4 515.104 2363.4 613.904 2361.8C667.404 2361.4 721.704 2360.6 774.104 2359.9C1046.8 2356.2 1328.8 2352.4 1610.8 2389.1C1654.4 2394.6 1698.8 2391.8 1741.7 2389.1C1784.7 2386.4 1829.2 2383.6 1873 2389.1C1916.9 2395.4 1953.6 2404.3 1985.2 2416.5C2210.8 2501.4 2544.1 2595.4 2832.7 2433.2L2833.7 2435C2727.2 2494.9 2610.2 2524.3 2477.8 2524.3L2477.7 2524.2Z" fill="#BAD2FF" fill-opacity="0.25"/>
<path d="M2511.7 2482.8C2479 2482.8 2445.4 2480.9 2410.9 2477.3C2278.1 2463.1 2130.5 2420.6 1959.8 2347.4C1925.3 2331.7 1893.3 2322.6 1864.5 2320.2C1810.7 2316.4 1756.2 2312.9 1703.5 2309.5C1569.6 2301 1431.1 2292.2 1293.8 2276.5C1234.3 2267.6 1179.1 2268.7 1132.9 2271C1034.7 2273.3 934.904 2278.9 838.304 2284.2C596.304 2297.6 346.104 2311.5 99.4043 2276.3L99.7043 2274.3C346.304 2309.5 596.304 2295.6 838.204 2282.2C934.804 2276.8 1034.6 2271.3 1132.8 2269C1179.1 2266.7 1234.4 2265.5 1294.1 2274.5C1431.3 2290.2 1569.8 2299 1703.7 2307.5C1756.4 2310.9 1810.9 2314.3 1864.7 2318.2C1893.7 2320.6 1925.9 2329.8 1960.6 2345.6C2199.8 2448.1 2553.6 2564.6 2862.8 2392.8L2863.8 2394.6C2757.3 2453.8 2641.4 2482.9 2511.7 2482.9V2482.8Z" fill="#BAD2FF" fill-opacity="0.25"/>
<path d="M2569.5 2426.9C2529.1 2426.9 2487.3 2424.1 2443.9 2418.5C2290.2 2398.7 2136.4 2347.7 1987.7 2298.4C1976.6 2294.7 1965.5 2291 1954.4 2287.4C1461.7 2124.9 945.905 2187.2 447.205 2247.4L409.305 2252C332.105 2261.9 256.405 2254.5 183.205 2247.3C155.305 2244.6 126.405 2241.7 97.8047 2239.9V2237.9C126.605 2239.7 155.505 2242.6 183.405 2245.3C256.505 2252.5 332.105 2259.9 409.105 2250L447.005 2245.4C696.805 2215.2 955.105 2184.1 1206.9 2181.4C1489.1 2178.4 1733.8 2212.5 1955.1 2285.5C1966.2 2289.2 1977.2 2292.8 1988.4 2296.5C2291.4 2396.9 2604.7 2500.8 2896 2348.5L2896.9 2350.3C2798.9 2401.6 2690.9 2426.9 2569.6 2426.9H2569.5Z" fill="#BAD2FF" fill-opacity="0.25"/>
<path d="M2611.51 2368.5C2409.71 2368.5 2206.91 2301.6 2022.61 2232.7C1572.81 2065.2 1082.81 2056 433.905 2202.7C331.505 2224.6 223.705 2224.7 94.7051 2202.8L95.0051 2200.8C223.705 2222.6 331.305 2222.6 433.405 2200.7C735.105 2132.5 998.805 2098.9 1239.51 2097.9C1523.81 2096.8 1780.21 2140.3 2023.21 2230.7C2305.91 2336.4 2632.61 2437.5 2931.51 2298.7L2932.41 2300.6C2827.81 2349.2 2719.71 2368.5 2611.41 2368.5H2611.51Z" fill="#BAD2FF" fill-opacity="0.25"/>
<path d="M2662.3 2303.3C2656.6 2303.3 2650.8 2303.3 2645.1 2303.1C2540.3 2301.1 2430.1 2281.1 2317.6 2243.6C2003.8 2141.6 1663.3 2042.8 1299.3 2011.5C1061 1991.1 842.204 2049.1 610.504 2110.5C533.704 2130.9 454.204 2151.9 373.904 2169.9C283.604 2187.5 193.504 2185.8 90.1035 2164.8L90.5035 2162.8C193.604 2183.8 283.504 2185.4 373.404 2167.9C453.704 2149.9 533.104 2128.9 609.904 2108.5C841.704 2047.1 1060.7 1989.1 1299.4 2009.5C1663.6 2040.8 2004.3 2139.6 2318.2 2241.7C2555 2320.6 2779.9 2320.7 2968.7 2242L2969.5 2243.9C2875 2283.3 2771.7 2303.3 2662.3 2303.3Z" fill="#BAD2FF" fill-opacity="0.25"/>
<path d="M2749.01 2214.2C2577.51 2214.2 2407.71 2170.5 2231.31 2125.1C2151.01 2104.4 2067.91 2083.1 1984.61 2066.1C1898.31 2046.9 1814.91 2028 1734.31 2009.7C1631.71 1986.4 1525.71 1962.3 1413.81 1937.8C1122.81 1876.3 853.105 1968.4 592.205 2057.5C552.005 2071.2 510.505 2085.4 469.505 2098.8C333.805 2143 203.905 2151.5 83.2051 2124L83.7051 2122C204.005 2149.4 333.605 2140.9 468.905 2096.8C509.905 2083.4 551.405 2069.2 591.605 2055.5C722.405 2010.8 857.605 1964.7 993.505 1938.4C1145.81 1908.9 1283.51 1908.1 1414.31 1935.7C1526.11 1960.2 1632.21 1984.3 1734.81 2007.6C1815.41 2025.9 1898.71 2044.8 1985.01 2064C2068.31 2080.9 2151.41 2102.3 2231.81 2123C2495.11 2190.7 2743.81 2254.7 3004.91 2175L3005.51 2177C2919.01 2203.4 2833.81 2214.1 2749.01 2214.1V2214.2Z" fill="#BAD2FF" fill-opacity="0.25"/>
<path d="M2806.8 2115.9C2597.9 2115.9 2391.7 2066.8 2176.8 2015.6C2151.9 2009.7 2127 2003.7 2102 1997.9C2057.1 1987.9 2012.1 1981.9 1960.2 1978.8C1939.5 1977 1918.7 1975.8 1898.7 1974.6C1858.3 1972.2 1816.5 1969.7 1774.4 1962.4C1704.5 1948.4 1637.2 1927.4 1572.2 1907.1C1468.9 1874.9 1371.4 1844.5 1263.9 1839.5C1039.2 1827.6 829.204 1908.5 626.204 1986.8C550.304 2016.1 471.704 2046.4 393.204 2071.5C298.204 2104 194.104 2106.9 74.9043 2080.3L75.3043 2078.3C194.104 2104.8 297.904 2101.9 392.504 2069.5C471.004 2044.3 549.504 2014.1 625.404 1984.8C828.704 1906.4 1038.9 1825.4 1264 1837.3C1371.8 1842.3 1469.4 1872.7 1572.8 1905C1637.8 1925.3 1705 1946.2 1774.8 1960.2C1816.8 1967.5 1858.5 1970 1898.9 1972.4C1918.9 1973.6 1939.7 1974.8 1960.4 1976.6C2012.4 1979.7 2057.5 1985.7 2102.5 1995.7C2127.5 2001.6 2152.4 2007.5 2177.3 2013.4C2470.4 2083.2 2747.2 2149 3036.4 2091.8L3036.8 2093.8C2959.5 2109.1 2883 2115.6 2806.9 2115.6L2806.8 2115.9Z" fill="#BAD2FF" fill-opacity="0.25"/>
<path d="M196.105 2047.9C152.905 2047.9 109.205 2043.3 64.7051 2032.8L65.2051 2030.8C279.305 2081.4 477.805 1995.2 669.805 1911.7C749.405 1877.1 831.705 1841.3 914.105 1815.7C1014.21 1785.4 1104.11 1768.9 1188.81 1765.5C1286.91 1761.5 1379.41 1775.6 1463.61 1807.6L1474.51 1811.6C1576.11 1849.1 1672.11 1884.5 1777.41 1897.6C1832.71 1904.9 1888.91 1906 1943.31 1907C1990.91 1907.9 2040.21 1908.9 2088.71 1914C2184.91 1922.9 2281.8 1936.5 2375.6 1949.7C2597.6 1980.9 2827.11 2013.3 3057.31 1983.2L3057.6 1985.2C2827.1 2015.3 2597.41 1983 2375.31 1951.7C2281.61 1938.5 2184.61 1924.9 2088.51 1916C2040.11 1910.9 1990.91 1910 1943.31 1909C1888.91 1907.9 1832.61 1906.9 1777.21 1899.6C1671.71 1886.4 1575.61 1851 1473.91 1813.5L1463.01 1809.5C1307.11 1750.5 1127.81 1753.2 914.805 1817.7C832.505 1843.3 750.305 1879 670.705 1913.6C518.205 1979.9 361.605 2047.9 196.205 2047.9H196.105Z" fill="#BAD2FF" fill-opacity="0.25"/>
<path d="M214.404 1995.7C155.504 1995.7 99.2035 1987.4 53.6035 1979.4L54.0035 1977.4C115.004 1988.1 195.304 1999.3 275.204 1990.4C357.604 1981.2 433.904 1950.3 507.604 1920.4C521.704 1914.7 536.304 1908.8 550.704 1903.1C599.304 1884.1 648.704 1862.8 696.504 1842.2C883.904 1761.3 1077.6 1677.6 1288.5 1703.7C1376.7 1713.7 1454.2 1743.3 1536.2 1774.7C1587.2 1794.2 1640 1814.4 1695.5 1829.3C1741 1840 1788.2 1851.1 1834.4 1848.4C2123.9 1835.5 2422.2 1839.1 2746.6 1859.3C2826.9 1865.5 2909.7 1862.3 2989.8 1859.3C3015.8 1858.3 3042.7 1857.3 3068.9 1856.6V1858.6C3042.7 1859.3 3015.9 1860.3 2989.9 1861.3C2909.7 1864.4 2826.8 1867.5 2746.5 1861.3C2422.2 1841 2123.9 1837.5 1834.6 1850.4C1788.1 1853.1 1740.8 1842 1695.1 1831.3C1639.5 1816.3 1586.7 1796.1 1535.6 1776.6C1453.7 1745.3 1376.3 1715.7 1288.4 1705.7C1078 1679.7 884.504 1763.2 697.404 1844C649.604 1864.6 600.204 1886 551.604 1905C537.204 1910.7 522.604 1916.6 508.504 1922.3C434.604 1952.3 358.304 1983.2 275.504 1992.4C255.104 1994.7 234.604 1995.6 214.504 1995.6L214.404 1995.7Z" fill="#BAD2FF" fill-opacity="0.25"/>
<path d="M170.104 1933.7C127.804 1933.7 84.9043 1929.4 41.9043 1919.5L42.4043 1917.5C247.604 1964.9 449.004 1883.7 610.904 1818.5C649.504 1803 688.804 1786 726.704 1769.5C910.204 1690.1 1100 1607.9 1310.5 1646.4C1387.6 1660.1 1458.6 1689.4 1527.3 1717.8C1568.4 1734.8 1610.9 1752.3 1654.8 1766.6C1743.3 1793.4 1834.8 1821.1 1930.1 1802.1C2330.2 1715.4 2713.3 1715.2 3071.4 1722.4V1724.4C2713.4 1717.1 2330.4 1717.3 1930.5 1804C1834.7 1823.2 1742.9 1795.4 1654.2 1768.5C1610.3 1754.2 1567.7 1736.6 1526.6 1719.6C1458 1691.3 1387.2 1662 1310.3 1648.3C1100.5 1609.9 911.004 1692 727.704 1771.3C689.704 1787.7 650.504 1804.7 611.804 1820.3C483.604 1872 330.504 1933.6 170.304 1933.6L170.104 1933.7Z" fill="#BAD2FF" fill-opacity="0.25"/>
<path d="M157.004 1863.3C115.104 1863.3 72.8043 1859.7 29.9043 1851.7L30.3043 1849.7C267.004 1893.9 486.604 1803.4 699.104 1715.9C782.504 1681.5 868.804 1646 955.004 1619.1C1063.6 1584.4 1225.4 1545.1 1376.2 1605.5C1420.5 1622.9 1464.9 1644.5 1507.8 1665.4C1626.6 1723.2 1749.5 1783.1 1883.6 1761.1C2007.2 1740.2 2128.9 1711.1 2246.6 1682.9C2521.5 1617.1 2781.1 1554.9 3063.8 1589.1L3063.6 1591.1C2781.2 1557 2521.7 1619.1 2247.1 1684.9C2129.4 1713.1 2007.6 1742.2 1884 1763.1C1749.3 1785.2 1626.1 1725.3 1507 1667.3C1464.1 1646.4 1419.7 1624.8 1375.5 1607.4C1225.3 1547.3 1063.9 1586.4 955.704 1621.1C869.604 1648 783.304 1683.5 699.904 1717.9C525.704 1789.6 346.604 1863.4 157.104 1863.4L157.004 1863.3Z" fill="#BAD2FF" fill-opacity="0.25"/>
<path d="M122.505 1780.9C88.0051 1780.9 53.3051 1778.9 18.2051 1774.6L18.5051 1772.6C267.705 1803.4 500.905 1716 726.405 1631.6C817.705 1597.4 912.105 1562 1006.91 1534.6C1135.01 1496.8 1260.81 1502.4 1370.81 1551C1416.01 1570.4 1461.01 1594.1 1504.51 1617C1626.51 1681.3 1752.61 1747.8 1897.31 1725.7C2033.81 1706.4 2157.7 1653.9 2277.6 1603.2C2362.1 1567.4 2449.4 1530.4 2541.6 1504.6C2708.9 1458 2879.3 1444.7 3048.1 1465L3047.91 1467C2879.41 1446.7 2709.31 1460 2542.21 1506.5C2450.11 1532.3 2362.91 1569.3 2278.41 1605C2158.41 1655.8 2034.31 1708.4 1897.61 1727.7C1752.31 1749.9 1625.91 1683.3 1503.61 1618.8C1460.11 1595.9 1415.21 1572.2 1370.01 1552.9C1260.51 1504.5 1135.11 1498.9 1007.51 1536.6C912.705 1564 818.405 1599.4 727.105 1633.6C533.105 1706.3 333.405 1781.1 122.505 1781.1V1780.9Z" fill="#BAD2FF" fill-opacity="0.25"/>
<path d="M1835.01 1696.4C1700.51 1696.4 1583.01 1625.8 1468.91 1557.3C1435.61 1537.3 1401.21 1516.6 1367.11 1498.2C1201.71 1406.7 1025.31 1445.8 890.005 1490.1C849.705 1503.4 808.705 1517.4 769.105 1530.9C524.305 1614.4 271.105 1700.8 8.20508 1686.2V1684.2C270.805 1698.7 523.805 1612.4 768.405 1529C808.005 1515.5 849.005 1501.5 889.305 1488.2C980.705 1458.3 1059.61 1442.8 1130.61 1441C1218.91 1438.8 1296.61 1456.9 1368.01 1496.4C1402.21 1514.9 1436.61 1535.6 1469.91 1555.6C1599.51 1633.5 1733.51 1714 1891.71 1690.2C2050.91 1665.7 2192.71 1592.7 2329.81 1522C2406.81 1482.3 2486.41 1441.3 2568.71 1409C2709.91 1353 2868.4 1334.4 3027.1 1354.9L3026.81 1356.9C2868.51 1336.4 2710.31 1355 2569.41 1410.8C2487.21 1443.1 2407.61 1484.1 2330.71 1523.7C2193.51 1594.4 2051.61 1667.5 1892.01 1692.1C1872.61 1695 1853.61 1696.4 1834.91 1696.4H1835.01Z" fill="#BAD2FF" fill-opacity="0.25"/>
<path d="M1834.4 1660.5C1683.4 1660.5 1553.9 1573.4 1428.3 1488.8C1397.6 1468.1 1365.8 1446.8 1334.3 1427.1C1172.6 1327.8 997.605 1365.2 846.305 1408.1C795.805 1422.8 744.805 1438.5 695.505 1453.6C462.405 1525.2 242.205 1592.9 3.30469 1588.9V1586.9C241.905 1590.9 462.005 1523.2 694.905 1451.6C744.205 1436.4 795.205 1420.8 845.705 1406.1C919.205 1385.3 1006 1363.8 1093.4 1362.4C1184.7 1360.9 1263.8 1381.5 1335.3 1425.4C1366.8 1445.1 1398.6 1466.5 1429.3 1487.2C1569.6 1581.6 1714.7 1679.2 1888.9 1654.7C2048.7 1633 2183 1553 2325.2 1468.2L2328.2 1466.4C2434.8 1401.9 2539.7 1340.6 2651.4 1299.3C2777.6 1252.7 2893.1 1240 3004.7 1260.6L3004.3 1262.6C2766.5 1218.8 2557.9 1329.8 2329.2 1468.2L2326.2 1470C2183.8 1554.9 2049.3 1635.1 1889.1 1656.8C1870.5 1659.4 1852.1 1660.7 1834.1 1660.7L1834.4 1660.5Z" fill="#BAD2FF" fill-opacity="0.25"/>
<path d="M1832.71 1617.1C1819.81 1617.1 1806.71 1616.6 1793.61 1615.7C1650.51 1602.9 1537.11 1523 1416.91 1438.4C1359.91 1398.2 1300.91 1356.7 1238.81 1323.4C1157.51 1280.4 1064.01 1270.9 944.605 1293.5C817.605 1316.1 693.305 1348 573.005 1378.9C381.705 1428 201.005 1474.4 6.70508 1488V1486C200.705 1472.4 381.305 1426.1 572.505 1377C692.805 1346.1 817.105 1314.2 944.205 1291.6C1064.11 1268.9 1158.11 1278.5 1239.81 1321.7C1302.01 1355 1361.01 1396.6 1418.11 1436.8C1538.01 1521.2 1651.21 1601 1793.81 1613.8C2015.51 1630.2 2201.71 1503.8 2381.81 1381.6C2471.91 1320.4 2565.11 1257.2 2661.71 1212.5C2745.21 1173.1 2850.51 1162.6 2983.51 1180.6L2983.21 1182.6C2850.61 1164.6 2745.71 1175 2662.51 1214.3C2566.11 1258.9 2473.01 1322.1 2382.91 1383.2C2213.21 1498.4 2038.11 1617.2 1832.81 1617.2L1832.71 1617.1Z" fill="#BAD2FF" fill-opacity="0.25"/>
<path d="M1828.2 1577.9C1653.8 1577.9 1517.4 1473.8 1373.3 1363.8C1328.8 1329.8 1282.8 1294.7 1236 1263.3C1112.2 1178.9 975.505 1191.2 846.305 1217C742.605 1237.7 641.305 1262 543.405 1285.4C365.905 1327.9 198.205 1368 18.5047 1388.7L18.3047 1386.7C197.905 1366.1 365.505 1325.9 543.005 1283.5C640.905 1260.1 742.205 1235.8 845.905 1215.1C975.605 1189.2 1112.8 1176.9 1237.2 1261.7C1284.1 1293.2 1330.1 1328.3 1374.6 1362.3C1523.8 1476.3 1664.8 1583.9 1848.2 1575.5C2059.4 1566.7 2227.5 1444.2 2405.5 1314.4C2447 1284.2 2489.8 1252.9 2533.1 1223.4C2668.2 1129.7 2813.2 1092.3 2964.2 1112.2L2963.9 1114.2C2813.4 1094.4 2668.8 1131.6 2534.2 1225.1C2491 1254.6 2448.1 1285.9 2406.7 1316.1C2228.5 1446 2060.1 1568.7 1848.3 1577.6C1841.6 1577.9 1834.9 1578.1 1828.2 1578.1V1577.9Z" fill="#BAD2FF" fill-opacity="0.25"/>
<path d="M1847.71 1532.3C1826.91 1532.3 1806.11 1531 1785.31 1528.3C1607.71 1507.4 1474.41 1401.3 1333.31 1289C1290.51 1254.9 1246.21 1219.7 1200.41 1186.8C1099.21 1116.2 970.805 1099.3 808.005 1135.1C731.005 1152.6 655.005 1171.6 581.405 1190.1C397.505 1236.2 223.805 1279.8 37.9051 1299.6L37.7051 1297.6C223.405 1277.8 397.005 1234.3 580.905 1188.2C654.405 1169.8 730.505 1150.7 807.505 1133.2C970.905 1097.2 1099.81 1114.3 1201.51 1185.2C1247.31 1218.1 1291.61 1253.4 1334.41 1287.5C1475.31 1399.6 1608.41 1505.6 1785.41 1526.4C2019.11 1556.1 2207.41 1412.1 2389.41 1272.8C2441.31 1233.1 2495.01 1192 2549.31 1155.2C2675.71 1068.1 2813.41 1032.7 2947.41 1052.8L2947.1 1054.8C2813.5 1034.8 2676.41 1070.1 2550.41 1156.8C2496.21 1193.5 2442.5 1234.6 2390.6 1274.3C2299.2 1344.2 2204.71 1416.5 2106.01 1465.9C2017.21 1510.3 1932.11 1532.2 1847.51 1532.3H1847.71Z" fill="#BAD2FF" fill-opacity="0.25"/>
<path d="M1845.8 1480.2C1834.8 1480.2 1823.7 1479.8 1812.7 1479.1C1595 1466.4 1422 1320.8 1254.8 1179.9C1241.2 1168.5 1227.7 1157 1214.1 1145.7C1117.3 1062 982.304 1030.2 843.604 1058.5C743.704 1078.7 646.504 1102.8 552.504 1126.2C387.704 1167.2 232.104 1205.9 64.7039 1224.4L64.5039 1222.4C231.704 1203.9 387.304 1165.2 552.004 1124.3C646.004 1100.9 743.204 1076.8 843.204 1056.6C982.504 1028.2 1118.2 1060.1 1215.4 1144.2C1229 1155.5 1242.5 1167 1256.1 1178.4C1423.1 1319 1595.7 1464.5 1812.8 1477.1C2037.8 1491.9 2217.3 1351.6 2390.8 1215.8C2440.5 1176.9 2492 1136.7 2544 1100.4C2659.1 1017.4 2793.9 982.6 2933.7 999.7L2933.5 1001.7C2794.2 984.7 2660 1019.4 2545.3 1102.1C2493.3 1138.4 2441.9 1178.6 2392.2 1217.4C2305.1 1285.5 2215 1356 2120.6 1405.9C2026.3 1455.7 1936.1 1480.2 1845.9 1480.2H1845.8Z" fill="#BAD2FF" fill-opacity="0.25"/>
<path d="M1840.5 1419.5C1629.3 1419.5 1446.9 1279.7 1269.6 1143.8C1229.8 1113.3 1188.7 1081.8 1148.5 1053C1062.8 995 964.905 974.3 865.305 993.1C760.705 1013.6 658.405 1038.2 559.405 1062C402.805 1099.6 254.805 1135.2 97.6047 1156.2L97.3047 1154.2C254.405 1133.2 402.305 1097.6 558.905 1060C657.905 1036.2 760.205 1011.6 864.805 991.1C965.005 972.2 1063.4 993 1149.6 1051.3C1189.8 1080.2 1231 1111.7 1270.8 1142.2C1484.8 1306.2 1706 1475.8 1976.2 1398C2143.2 1348.7 2271.6 1250.4 2407.7 1146.3C2466 1101.7 2526.3 1055.5 2590.3 1013.1C2679 957.9 2790.6 937.2 2921.9 951.4L2921.7 953.4C2790.8 939.3 2679.7 959.9 2591.4 1014.8C2527.4 1057.2 2467.2 1103.3 2408.9 1147.9C2272.7 1252.1 2144.1 1350.5 1976.7 1400C1929.9 1413.5 1884.5 1419.6 1840.4 1419.6L1840.5 1419.5Z" fill="#BAD2FF" fill-opacity="0.25"/>
<path d="M1859.9 1334.9C1745 1334.9 1628.6 1304.9 1505.1 1243.5C1379.9 1181.3 1262.9 1094.3 1164.9 1017.4C987.904 881.1 789.104 938.8 596.804 994.6C531.604 1013.5 464.104 1033.1 398.404 1044.9C378.704 1048.5 359.304 1052 340.104 1055.6C270.404 1068.4 204.504 1080.6 136.204 1091L135.904 1089C204.204 1078.6 270.104 1066.5 339.804 1053.6C359.004 1050.1 378.404 1046.5 398.104 1042.9C463.704 1031.2 531.104 1011.6 596.304 992.7C692.604 964.7 792.204 935.8 887.904 931.6C995.304 926.8 1086.4 954.4 1166.2 1015.9C1368.9 1175 1608.4 1343.6 1886.4 1332.5C2089.1 1323.8 2245.7 1205.5 2411.4 1080.3C2451.8 1049.8 2493.6 1018.2 2535.7 988.6C2642.9 914.6 2773.1 886.1 2912.3 906.1L2912 908.1C2773.3 888.2 2643.5 916.6 2536.8 990.3C2494.6 1019.9 2452.9 1051.4 2412.5 1081.9C2246.5 1207.3 2089.7 1325.8 1886.3 1334.5C1877.4 1334.9 1868.5 1335 1859.7 1335L1859.9 1334.9Z" fill="#BAD2FF" fill-opacity="0.25"/>
<path d="M1852.6 1227.1C1742.6 1227.1 1631 1207.1 1519.9 1167.5C1394.5 1122.7 1265 1051.1 1134.9 954.7C1049.6 892.6 938.305 869.4 821.705 889.3C726.505 906.7 634.305 929.3 545.105 951.2C420.605 981.7 303.005 1010.5 177.605 1026.6L177.305 1024.6C302.605 1008.5 420.105 979.7 544.605 949.2C633.805 927.3 726.105 904.7 821.405 887.3C938.605 867.3 1050.4 890.6 1136.2 953C1415.2 1159.9 1679.3 1247.4 1943.8 1220.4C2137.2 1201.5 2288.9 1095.6 2449.5 983.4C2474.1 966.2 2499.5 948.5 2524.9 931.1C2631.6 861.6 2759.3 838.4 2904.5 862L2904.2 864C2759.5 840.4 2632.3 863.6 2526.1 932.7C2500.7 950 2475.3 967.8 2450.7 984.9C2289.9 1097.2 2138 1203.4 1944 1222.3C1913.7 1225.4 1883.3 1226.9 1852.7 1226.9L1852.6 1227.1Z" fill="#BAD2FF" fill-opacity="0.25"/>
<path d="M1784.2 1102.9C1673.5 1102.9 1563.6 1087.7 1456.9 1057.5C1335.3 1023.1 1217.8 969.2 1107.6 897.4C1018.8 840 915.304 822.6 799.804 845.7C711.704 861.2 626.204 880 543.604 898.2C433.304 922.5 329.104 945.4 218.404 961.3L218.104 959.3C328.704 943.4 432.904 920.5 543.204 896.2C625.804 878 711.304 859.2 799.404 843.7C915.404 820.5 1019.5 838 1108.7 895.7C1545.7 1180.8 2076.1 1168.6 2527.5 862.9C2638.3 787.3 2771 799.5 2897.4 818.5L2897.1 820.5C2771.1 801.6 2638.8 789.4 2528.6 864.6C2310 1012.6 2065.3 1094.8 1821.1 1102.4C1808.7 1102.8 1796.3 1103 1784 1103L1784.2 1102.9Z" fill="#BAD2FF" fill-opacity="0.25"/>
<path d="M1686.4 953C1437.7 953 1200.2 907.8 979.505 818.3C827.905 757.7 666.205 800.6 509.705 842.1C426.705 864.1 340.805 886.9 257.005 894.2L256.805 892.2C340.505 884.9 426.205 862.1 509.205 840.1C666.005 798.5 828.105 755.5 980.305 816.4C1447.7 1006 1989.5 996.3 2506 789.1C2638.4 733.2 2781.4 751.8 2891.2 774.3L2890.8 776.3C2781.3 753.9 2638.7 735.3 2506.8 791C2258.6 890.5 2002.8 944.8 1746.3 952.2C1726.3 952.8 1706.3 953.1 1686.5 953.1L1686.4 953Z" fill="#BAD2FF" fill-opacity="0.25"/>
<path d="M1410.1 842.4C1345.3 842.4 1280.2 840 1214.6 834.7C1159.8 830.1 1108.3 810 1058.4 790.4C1018.3 774.7 976.804 758.5 933.204 750C787.104 725.1 647.704 755.4 512.804 784.8C440.904 800.4 366.504 816.6 291.604 824.4L291.404 822.4C366.204 814.6 440.504 798.4 512.404 782.8C647.504 753.4 787.104 723 933.604 748C977.404 756.5 1019 772.8 1059.1 788.5C1108.8 808 1160.3 828.1 1214.7 832.6C1577.1 862 1923.8 802.4 2290.9 739.2C2363.9 726.6 2439.4 713.6 2514.3 701.5C2644.3 678.9 2773.6 703.9 2884.6 729.1L2884.1 731.1C2773.3 705.9 2644.3 681 2514.6 703.5C2439.7 715.6 2364.2 728.6 2291.2 741.2C1990.4 793 1703.3 842.4 1410 842.4H1410.1Z" fill="#BAD2FF" fill-opacity="0.25"/>
<path d="M1220.4 775C1179 775 1138.4 769.2 1099.6 752.7C899.804 664.6 689.704 697 486.504 728.3C432.304 736.6 376.304 745.3 321.804 751.4L321.604 749.4C376.004 743.3 432.004 734.7 486.204 726.4C689.704 695 900.103 662.6 1100.5 750.9C1186.1 787.2 1281.1 771.3 1372.9 755.9L1386.6 753.6C1423.5 747 1460.4 740.3 1497.3 733.7C1725.7 692.3 1961.9 649.6 2191.7 633C2448.8 614.4 2673.1 631 2877.5 683.8L2877 685.8C2422.1 568.4 1973.1 649.7 1497.7 735.8C1460.9 742.5 1424 749.2 1387 755.7L1373.3 758C1322.7 766.5 1271 775.2 1220.5 775.2L1220.4 775Z" fill="#BAD2FF" fill-opacity="0.25"/>
<path d="M1184.7 713.2C1164.8 713.2 1145.2 710.5 1127 703.5C862.705 611.7 597.105 639.3 347.605 675.5L347.305 673.5C597.005 637.3 862.905 609.7 1127.6 701.7C1187.1 724.4 1261.2 701.7 1315.4 685.3C1893.1 505.1 2416 489.1 2869.5 637.6L2868.9 639.5C2415.8 491.1 1893.3 507.2 1316 687.2C1278.1 698.7 1230.4 713.3 1184.6 713.3L1184.7 713.2Z" fill="#BAD2FF" fill-opacity="0.25"/>
<path d="M1134.51 655.8C1125.61 655.8 1116.61 654.6 1107.91 651.7C847.205 551 576.105 569.8 369.005 597.4L368.705 595.4C576.005 567.8 847.505 549 1108.51 649.8C1134.11 658.3 1162.31 651.5 1181.51 644.3C1473.11 538.8 1755.31 478 2020.41 463.5C2320.91 447.1 2603.61 490.2 2860.71 591.5L2859.91 593.4C2373.51 401.7 1809.01 419.4 1182.31 646.2C1169.31 651.1 1152.21 655.8 1134.51 655.8Z" fill="#BAD2FF" fill-opacity="0.25"/>
<path d="M1119.8 601C1110.7 601 1102.2 599.7 1094.2 597C874.704 516.1 636.504 489.6 386.104 518.4L385.904 516.4C636.704 487.6 875.204 514.1 1095 595.2C1122.1 604.2 1151.1 595.7 1170.7 587C1744.9 342.2 2341.7 327.4 2851.3 545.4L2850.5 547.3C2341.4 329.5 1745.1 344.3 1171.5 588.9C1153.3 597 1135.8 601.1 1119.9 601.1L1119.8 601Z" fill="#BAD2FF" fill-opacity="0.25"/>
<path d="M1099.6 546.4C1074.6 546.4 1050.6 541.5 1028.6 531.5C820.604 434.6 593.604 431.4 398.904 441V439C593.704 429.4 821.104 432.6 1029.5 529.6C1078.6 551.7 1137.4 548.8 1195.2 521.4C1454.8 397.6 1731.6 333.6 2017.7 331.1C2298.1 328.7 2575.2 385.2 2841.3 499.1L2840.5 501C2297.7 268.7 1713.7 276.6 1196.1 523.3C1163.7 538.7 1130.9 546.4 1099.7 546.4H1099.6Z" fill="#BAD2FF" fill-opacity="0.25"/>
<path d="M1091.1 492.2C1083.5 492.2 1076.1 491.1 1069.5 487.8C811.903 393.2 607.704 355.5 407.604 365.4V363.4C607.904 353.4 812.303 391.2 1070.3 485.9C1084.5 493 1103.2 489.6 1118.2 486.9C1120.3 486.5 1122.4 486.1 1124.4 485.8C1197.8 463.6 1271.3 438.4 1342.4 414.1C1550 343 1764.6 269.4 1992.9 267.4C2245.7 267.4 2486.8 343.8 2720.1 417.7C2756.4 429.2 2794 441.1 2830.9 452.5L2830.3 454.5C2793.4 443.1 2755.8 431.2 2719.4 419.7C2486.3 345.8 2245.3 269.5 1992.8 269.5C1764.8 271.5 1550.3 345 1342.9 416.1C1271.9 440.4 1198.4 465.6 1124.9 487.8C1122.8 488.2 1120.7 488.5 1118.6 488.9C1110.1 490.4 1100.5 492.1 1091.2 492.1L1091.1 492.2Z" fill="#BAD2FF" fill-opacity="0.25"/>
<path d="M1091 436C1078.4 436 1065.7 434.4 1053.2 430.5C844.104 357.1 637.704 291.3 412.404 290.8V288.8C638.104 289.3 844.604 355.2 1054 428.6C1100.2 443 1149.4 426 1187.1 409.5C1435.4 305.3 1684.8 246.5 1928.5 234.6C2193.1 221.7 2444.6 264.9 2676.1 363C2719.5 380.9 2768.2 395.1 2820.9 405.2L2820.5 407.2C2767.7 397 2718.8 382.7 2675.3 364.8C2109.2 124.9 1553.9 257.6 1187.8 411.2C1159.9 423.4 1125.8 435.9 1091.1 435.9L1091 436Z" fill="#BAD2FF" fill-opacity="0.25"/>
<path d="M1084.3 377.5C1076.7 377.5 1069 376.4 1061.4 373.1C1016.5 359.5 971.304 344.7 927.604 330.5C755.804 274.6 593.504 221.7 413.404 216.9V214.9C593.904 219.8 756.304 272.6 928.204 328.6C971.904 342.8 1017.1 357.5 1062.1 371.2C1077.9 377.9 1093.9 375.3 1109.4 372.7C1112.6 372.2 1115.8 371.6 1119 371.2C1216.7 349.4 1309.8 319.9 1399.8 291.4C1527.5 250.9 1648.2 212.7 1782.6 193.7C2090.3 149.4 2381.8 233.5 2663.8 314.7C2712.2 328.6 2762.2 343.1 2811.3 356.6L2810.8 358.6C2761.6 345.1 2711.6 330.7 2663.2 316.7C2381.5 235.5 2090.2 151.5 1782.9 195.7C1648.7 214.6 1528.1 252.8 1400.5 293.3C1310.5 321.8 1217.3 351.3 1119.4 373.2C1116.1 373.7 1113 374.2 1109.8 374.7C1101.4 376.1 1092.9 377.5 1084.4 377.5H1084.3Z" fill="#BAD2FF" fill-opacity="0.25"/>
<path d="M1106.3 314C1088.8 314 1071.2 312.1 1053.3 307.7C971.705 288.6 892.505 263.2 815.905 238.6C680.505 195.2 552.605 154.2 410.805 143.9V141.9C553.005 152.2 681.005 193.3 816.505 236.7C893.005 261.2 972.205 286.6 1053.7 305.7C1113.3 320.6 1170.1 306.2 1230.2 290.9C1235.8 289.5 1241.5 288 1247.1 286.6C1264.6 281.6 1282.1 276.5 1299.4 271.5C1461.6 224.5 1614.7 180.2 1782.4 155.5C2055.5 113.8 2314.2 181.5 2564.3 246.9C2642.1 267.3 2722.6 288.3 2802.5 305.8L2802.1 307.8C2722.2 290.3 2641.7 269.2 2563.9 248.9C2314 183.5 2055.6 115.9 1782.8 157.5C1615.3 182.1 1462.2 226.5 1300.1 273.4C1282.7 278.4 1265.3 283.5 1247.7 288.5C1242 289.9 1236.4 291.4 1230.7 292.8C1188.3 303.6 1147.6 314 1106.2 314H1106.3Z" fill="#BAD2FF" fill-opacity="0.25"/>
<path d="M1101.7 255.2C1077.6 255.2 1051.7 250.9 1023.2 242.1C967.904 225.4 912.504 207 859.004 189.2C706.304 138.5 562.004 90.6 405.004 72.2L405.204 70.2C562.504 88.7 713.504 138.8 859.704 187.3C913.204 205.1 968.504 223.4 1023.8 240.1C1063.5 252.3 1098.2 255.9 1129.8 251C1239 236.1 1345.7 210.1 1448.9 185.1C1590 150.8 1736 115.4 1886.3 109C2124.3 98.4999 2346.4 153 2581.6 210.6L2613 218.3C2677.1 235 2735.1 245.8 2795.6 252.2L2795.4 254.2C2734.9 247.8 2676.8 237 2612.6 220.2L2581.2 212.5C2346.2 154.9 2124.2 100.5 1886.5 111C1736.4 117.3 1590.5 152.7 1449.5 187C1346.2 212.1 1239.4 238 1130.2 253C1121 254.4 1111.5 255.1 1101.7 255.1V255.2Z" fill="#BAD2FF" fill-opacity="0.25"/>
<path d="M2677.51 2631.8L2675.61 2630.9C2710.01 2556.2 2751.21 2489.9 2794.81 2419.7C2811.91 2392.3 2829.51 2363.9 2846.71 2334.9C3004.31 2068.9 2968.51 1769.9 2933.91 1480.7C2930.21 1450.2 2926.51 1418.7 2923.01 1387.9C2910.81 1280.2 2893.91 1173.1 2877.61 1069.5C2857.51 942.2 2836.81 810.5 2824.71 677.9C2816.11 591.8 2797.31 505.7 2779.21 422.5C2762.81 347.4 2745.91 269.8 2736.51 192.2L2738.51 192C2747.91 269.5 2764.81 347.1 2781.21 422.1C2799.31 505.4 2818.11 591.5 2826.71 677.8C2838.81 810.4 2859.51 942 2879.61 1069.3C2895.91 1172.9 2912.81 1280.1 2925.11 1387.8C2928.51 1418.6 2932.31 1450.1 2936.01 1480.5C2970.71 1770 3006.51 2069.4 2848.51 2336C2831.31 2365 2813.61 2393.4 2796.61 2420.8C2753.01 2490.9 2711.91 2557.1 2677.51 2631.7V2631.8Z" fill="#BAD2FF" fill-opacity="0.25"/>
<path d="M2632.1 2649.9L2630.2 2649.2C2653.4 2588.9 2683.2 2532.8 2712.1 2478.5C2725.1 2454.1 2738.5 2428.8 2751.2 2403.4C2781.4 2338 2813.8 2261.6 2816.6 2182.6C2820.2 1848 2806.7 1508.8 2793.6 1180.7C2787 1016.1 2780.2 845.8 2775.7 678C2772.4 576.6 2748.3 476.3 2725 379.2C2710 316.6 2694.5 251.8 2684.4 186.8L2686.4 186.5C2696.4 251.5 2712 316.2 2727 378.8C2750.3 476 2774.4 576.4 2777.7 678C2782.3 845.8 2789.1 1016 2795.6 1180.7C2808.7 1508.8 2822.3 1848 2818.6 2182.7C2815.8 2262.1 2783.2 2338.7 2753 2404.3C2740.3 2429.7 2726.8 2455 2713.8 2479.5C2685 2533.7 2655.2 2589.8 2632 2650L2632.1 2649.9Z" fill="#BAD2FF" fill-opacity="0.25"/>
<path d="M2588.2 2665.2L2586.3 2664.6C2599.2 2625.6 2615.6 2586.7 2631.6 2549.1C2674.2 2448.5 2718.3 2344.4 2696.5 2229.3C2617.3 1780.7 2649.1 1366.6 2721.1 882.7C2753.1 677.3 2705.8 481.5 2660.2 292.3C2651.3 255.3 2642 217 2633.5 179.2L2635.5 178.7C2644 216.5 2653.3 254.8 2662.2 291.8C2707.9 481.3 2755.2 677.2 2723.2 883C2651.2 1366.6 2619.5 1780.6 2698.6 2228.9C2720.5 2344.6 2676.3 2449 2633.6 2549.9C2617.7 2587.5 2601.2 2626.3 2588.4 2665.2H2588.2Z" fill="#BAD2FF" fill-opacity="0.25"/>
<path d="M2545.1 2677.3L2543.1 2676.7C2588.1 2532.4 2628.5 2378.1 2587.2 2218.4C2578.3 2184.1 2568.7 2149.5 2559.4 2115.9C2530.1 2010.1 2499.9 1900.6 2487.1 1792.8C2472.8 1672.1 2482.3 1565.4 2516.2 1466.8C2698.5 946.8 2719.7 534.7 2582.9 169.7L2584.8 169C2659.9 369.2 2686.7 582.3 2666.8 820.6C2650.4 1017.3 2601.8 1228.9 2518.1 1467.4C2442.7 1686.4 2500.3 1894.7 2561.3 2115.2C2570.6 2148.8 2580.2 2183.5 2589.1 2217.7C2630.6 2378 2590 2532.6 2545 2677.1L2545.1 2677.3Z" fill="#BAD2FF" fill-opacity="0.25"/>
<path d="M2501.2 2686.2L2499.2 2685.7C2556.3 2478.1 2491.6 2277.1 2429 2082.7C2413.1 2033.3 2396.7 1982.3 2382.4 1931.7C2355.6 1832.7 2335.5 1727.8 2368.8 1630.7C2378.6 1603.2 2388.4 1575.5 2398.3 1547.9C2560.4 1094.2 2728.1 625 2532.3 159.1L2534.2 158.3C2730.3 625 2562.5 1094.5 2400.3 1548.6C2390.4 1576.3 2380.5 1603.9 2370.8 1631.4C2337.7 1727.9 2357.8 1832.5 2384.5 1931.2C2398.8 1981.8 2415.2 2032.8 2431.1 2082.1C2462.5 2179.6 2495 2280.5 2511.7 2380.6C2530.4 2492.8 2527 2592.8 2501.3 2686.2H2501.2Z" fill="#BAD2FF" fill-opacity="0.25"/>
<path d="M2455.1 2691.4L2453.1 2691.2C2475.9 2499.7 2412.4 2317.7 2351 2141.6C2330.8 2083.7 2309.9 2023.8 2292.3 1964.4C2245.4 1808 2249.1 1669.9 2303.3 1554.1C2492.9 1155.3 2684.3 635 2480.8 147.3L2482.7 146.5C2573.2 363.2 2594.1 597.1 2546.6 861.6C2510.1 1064.9 2433.4 1285.2 2305.2 1554.9C2251.2 1670.3 2247.5 1807.8 2294.3 1963.8C2311.8 2023.2 2332.7 2083 2352.9 2140.9C2414.4 2317.1 2478 2499.4 2455.1 2691.4Z" fill="#BAD2FF" fill-opacity="0.25"/>
<path d="M2406.11 2693.6H2404.11C2407.11 2605.2 2388.91 2523.2 2368.81 2447.7C2348.71 2368.8 2318.91 2289.1 2290.11 2212C2253.91 2115 2216.41 2014.8 2198.61 1916.6C2178.71 1806.6 2186.11 1710.3 2221.31 1622.3C2232.31 1594.2 2243.41 1566 2254.61 1537.6C2434.91 1080.2 2621.31 607.2 2427.91 135.1L2429.81 134.3C2516.51 345.9 2533.71 578.2 2482.51 844.6C2437.21 1080.1 2345.41 1313 2256.61 1538.3C2245.41 1566.6 2234.31 1594.9 2223.31 1623C2145.21 1818.3 2219.81 2018 2292.01 2211.2C2320.81 2288.3 2350.61 2368 2370.81 2447.1C2391.01 2522.7 2409.21 2604.8 2406.21 2693.5L2406.11 2693.6Z" fill="#BAD2FF" fill-opacity="0.25"/>
<path d="M2354.2 2693.7C2349.5 2636.7 2341.1 2585.5 2327.8 2532.4C2305.9 2451.1 2276 2367.8 2247.1 2287.3C2159.9 2044.5 2069.7 1793.4 2180.4 1551.4C2367.8 1149.8 2559.1 624.5 2373.4 123.1L2375.3 122.4C2457.5 344.4 2473.6 582.1 2424.5 849.1C2386.4 1056.2 2309.4 1279.6 2182.2 1552.3C2071.8 1793.5 2161.9 2044.2 2248.9 2286.6C2277.9 2367.2 2307.8 2450.6 2329.7 2531.9C2343 2585.1 2351.4 2636.5 2356.1 2693.5L2354.1 2693.7H2354.2Z" fill="#BAD2FF" fill-opacity="0.25"/>
<path d="M2303.7 2691.8L2302.8 2685.9C2297.1 2648.1 2291.8 2612.4 2281.4 2576.2C2261.7 2509.4 2238.2 2440.3 2215.6 2373.5C2114 2073.6 2008.9 1763.5 2155.9 1469.5C2317.8 1137.2 2477.2 631.8 2317.1 111.4L2319.1 110.8C2385.3 326.2 2401.9 558.3 2368.5 800.5C2338.1 1020.3 2267.2 1245.7 2157.8 1470.4C2011.2 1763.6 2116.1 2073.3 2217.6 2372.8C2240.2 2439.6 2263.7 2508.7 2283.4 2575.6C2293.8 2612 2299.2 2647.8 2304.8 2685.6L2305.7 2691.5L2303.7 2691.8Z" fill="#BAD2FF" fill-opacity="0.25"/>
<path d="M2252.1 2688C2248.3 2642.9 2235.2 2601.6 2224.1 2570.8C2169.5 2414 2117.7 2260.4 2084.5 2105.1C2046.6 1928.4 2037.8 1770.6 2057.5 1622.8C2071.6 1514.9 2112.5 1418.9 2155.8 1317.4C2187.1 1244 2219.5 1168 2240.5 1087.5C2329 741.9 2335.2 409.8 2258.8 100.6L2260.8 100.1C2337.3 409.7 2331.2 742.1 2242.5 1088.1C2221.4 1168.8 2189 1244.8 2157.7 1318.3C2114.5 1419.7 2073.6 1515.5 2059.6 1623.2C2014.4 1962.2 2131.8 2299.4 2226.1 2570.3C2237.2 2601.3 2250.4 2642.7 2254.2 2688.1L2252.2 2688.3L2252.1 2688Z" fill="#BAD2FF" fill-opacity="0.25"/>
<path d="M2199.4 2683.1C2194 2644.4 2182.9 2605.5 2172.2 2568C2167.4 2552.9 2162.6 2537.7 2157.7 2522.4C2054.2 2197.4 1947.2 1861.3 2041.1 1532.5C2164.4 1103.5 2279.5 596.7 2198.3 90.8L2200.3 90.5C2281.5 596.7 2166.4 1103.8 2043 1533C1949.2 1861.2 2056.1 2197 2159.6 2521.7C2164.5 2536.9 2169.3 2552.2 2174.1 2567.3C2184.9 2605 2196 2643.9 2201.4 2682.7L2199.4 2683V2683.1Z" fill="#BAD2FF" fill-opacity="0.25"/>
<path d="M2147 2678.1C2133.8 2625.8 2119.7 2572.6 2106 2521.2C2024.4 2213.8 1940.1 1896 1989.3 1570.8C2001.5 1490.4 2014.5 1409.2 2027.1 1330.6C2095.2 904.7 2159.6 502.4 2136.2 82.8H2138.2C2161.6 502.5 2097.3 904.9 2029.1 1330.9C2016.5 1409.4 2003.5 1490.6 1991.3 1571.1C1942.2 1895.9 2026.5 2213.5 2108 2520.7C2121.6 2572.1 2135.8 2625.3 2149 2677.6L2147 2678.1Z" fill="#BAD2FF" fill-opacity="0.25"/>
<path d="M2098.3 2674.2C2092.3 2619.5 2083.4 2571.3 2071.1 2527C1995.5 2246.5 1953 1946.2 1937.3 1581.9C1935.7 1531 1943 1479.3 1950.1 1429.3C1954.8 1396 1959.7 1361.6 1961.9 1327.8C1993 951.5 2022.5 610.9 2068.4 251.8C2077.4 188.6 2078.7 129.8 2072.3 77L2074.3 76.8C2080.8 129.8 2079.5 188.8 2070.4 252.1C2024.5 611.1 1995 951.7 1963.9 1327.9C1961.7 1361.8 1956.8 1396.2 1952.1 1429.5C1945 1479.4 1937.7 1531 1939.3 1581.7C1955 1945.8 1997.5 2246 2073.1 2526.3C2085.4 2570.7 2094.3 2619 2100.3 2673.8L2098.3 2674V2674.2Z" fill="#BAD2FF" fill-opacity="0.25"/>
<path d="M2054 2672.3C2049.3 2611.6 2043.9 2551.9 2030.2 2488.7C1973.7 2265.7 1951.5 2046.1 1931.9 1852.3C1928.6 1820.7 1923.5 1788.5 1918.6 1757.3C1911.2 1710.5 1903.5 1662.2 1901.9 1614.6C1876 1190.2 1860.8 737.7 1981.1 281.7C1998.2 220.5 2002.2 156.5 2006.1 94.4999C2006.5 87.3999 2007 80.3 2007.4 73.2H2009.4C2008.9 80.4 2008.5 87.4999 2008.1 94.5999C2004.2 156.6 2000.2 220.8 1983.1 282.2C1862.9 737.9 1878.1 1190.2 1903.9 1614.5C1905.5 1662 1913.2 1710.3 1920.6 1756.9C1925.5 1788.1 1930.7 1820.3 1933.9 1852C1953.5 2045.7 1975.7 2265.2 2032.2 2488.1C2046 2551.5 2051.4 2611.3 2056.1 2672L2054.1 2672.2L2054 2672.3Z" fill="#BAD2FF" fill-opacity="0.25"/>
<path d="M2015.2 2672.6H2013.2C2013.9 2639.2 2011.3 2603.9 2005.7 2570.5C1996.7 2510.8 1987.5 2451 1978.5 2393.3C1948.5 2199.5 1920.1 2016.5 1899.2 1822.2C1883 1681.9 1859 1550 1833.5 1410.4C1820.7 1340.3 1807.5 1267.8 1795.4 1194.2C1767 1010.7 1771.3 829.3 1809.1 623.1C1825.1 535.8 1849 452.7 1872.2 372.3C1901.4 271 1929 175.4 1942 72.1001L1944 72.4001C1931 175.8 1903.4 271.5 1874.2 372.9C1851 453.2 1827.1 536.3 1811.1 623.5C1773.4 829.4 1769.1 1010.6 1797.5 1193.9C1809.6 1267.4 1822.8 1339.9 1835.6 1410C1861.1 1549.7 1885.1 1681.6 1901.3 1822C1922.2 2016.2 1950.6 2199.2 1980.6 2393C1989.6 2450.8 1998.8 2510.5 2007.8 2570.2C2013.4 2603.7 2016 2639.1 2015.3 2672.6H2015.2Z" fill="#BAD2FF" fill-opacity="0.25"/>
<path d="M1976.1 2675.4L1974.1 2675.1C1981.5 2615.7 1974.5 2554.4 1967.4 2507.7C1961.4 2465.8 1955.4 2424.2 1949.5 2382.8C1922.5 2195.1 1896.9 2017.9 1874.6 1830.4C1858.4 1678.5 1814.6 1538.6 1768.2 1390.5C1752.6 1340.8 1736.5 1289.4 1721.7 1238C1617.2 880.7 1717.7 531.7 1841.9 207.9C1854.9 173.3 1862.8 136.7 1870.4 101.3C1872.4 92.0001 1874.4 82.8001 1876.5 73.6001L1878.5 74.1001C1876.4 83.2001 1874.4 92.5001 1872.4 101.8C1864.8 137.3 1856.8 174 1843.8 208.7C1719.8 532.2 1619.4 880.8 1723.7 1237.5C1738.5 1288.9 1754.6 1340.3 1770.1 1390C1816.5 1538.2 1860.4 1678.2 1876.6 1830.3C1898.9 2017.7 1924.5 2195 1951.5 2382.6C1957.5 2423.9 1963.4 2465.5 1969.4 2507.5C1976.4 2554.4 1983.5 2615.8 1976.1 2675.5V2675.4Z" fill="#BAD2FF" fill-opacity="0.25"/>
<path d="M1937.2 2680.3L1935.2 2680.1C1943.3 2603.7 1942.2 2534 1931.9 2466.8C1916.1 2362.2 1902.8 2259.8 1889.9 2160.9C1874 2038.3 1857.5 1911.6 1836.3 1781.4C1812.3 1630.3 1755.2 1499.5 1694.6 1360.9C1686.3 1342 1678 1322.9 1669.8 1303.8C1596.6 1133.4 1575.4 950 1604.9 743.1C1628.1 580.7 1681.7 407.2 1773.6 197C1790.5 157.5 1802.1 113.2 1811.4 77.6001L1813.4 78.1001C1804.1 113.7 1792.5 158.1 1775.5 197.8C1639.6 508.4 1505 914.8 1671.7 1302.9C1680 1322.1 1688.3 1341.1 1696.5 1360C1757.1 1498.7 1814.3 1629.7 1838.3 1781C1859.5 1911.2 1876 2038 1891.9 2160.5C1904.8 2259.4 1918.1 2361.7 1933.9 2466.4C1944.3 2533.7 1945.4 2603.7 1937.3 2680.2L1937.2 2680.3Z" fill="#BAD2FF" fill-opacity="0.25"/>
<path d="M1897.8 2687.6L1895.8 2687.4C1920.9 2366 1856.1 2054.7 1787.4 1725.2L1787.1 1724C1759.7 1597.7 1706.4 1489.9 1650 1375.7C1623.3 1321.6 1595.7 1265.6 1571.4 1208.1C1508.9 1058.7 1495.8 896.2 1531.3 711.1C1562.8 547.3 1627.6 385.4 1690.2 228.9C1709.3 181.1 1729.1 131.7 1747.3 83.7L1749.2 84.4C1731 132.4 1711.2 181.8 1692.1 229.6C1565.2 546.6 1433.9 874.5 1573.2 1207.3C1597.5 1264.8 1625.1 1320.7 1651.8 1374.8C1705.7 1484.1 1761.5 1597.1 1789 1723.6L1789.3 1724.8C1858 2054.5 1922.9 2365.8 1897.7 2687.5L1897.8 2687.6Z" fill="#BAD2FF" fill-opacity="0.25"/>
<path d="M1857.11 2697.4L1855.11 2697.2C1890.61 2376.7 1845.41 2018.5 1724.41 1661.4C1693.11 1567.6 1648.41 1475.7 1605.21 1386.9C1520.11 1212 1432.21 1031.2 1443.11 828.2C1454.51 643.4 1527.01 474.2 1597.11 310.7C1627.61 239.6 1659.11 166.1 1685.21 92.1001L1687.11 92.8001C1660.91 166.8 1629.41 240.4 1599.01 311.5C1529.01 474.9 1456.61 643.9 1445.21 828.4C1434.41 1030.9 1522.21 1211.5 1607.11 1386.1C1650.41 1475 1695.11 1567 1726.41 1660.9C1784.61 1832.8 1825.61 2004.9 1848.31 2172.6C1872.71 2353.8 1875.71 2530.4 1857.21 2697.6L1857.11 2697.4Z" fill="#BAD2FF" fill-opacity="0.25"/>
<path d="M1813.9 2709.8L1811.9 2709.5C1870.1 2332.7 1809 1921.7 1639.8 1552.3C1616.5 1503.2 1591 1454.2 1566.3 1406.9C1510.1 1299.1 1451.9 1187.6 1415.8 1066.1C1334.8 797.5 1440.4 547.7 1542.6 306.2C1571 239.1 1600.3 169.7 1624.7 101.8L1626.6 102.5C1602.3 170.4 1572.9 239.8 1544.5 307C1442.5 548.2 1337 797.6 1417.8 1065.5C1453.8 1186.9 1511.9 1298.2 1568.1 1406C1592.8 1453.3 1618.3 1502.3 1641.7 1551.5C1811.1 1921.3 1872.3 2332.7 1814 2709.9L1813.9 2709.8Z" fill="#BAD2FF" fill-opacity="0.25"/>
<path d="M1768 2724.6L1766 2724.1C1844.2 2388.2 1793.6 1992.4 1623.4 1609.5C1595.2 1545.4 1562.4 1480.8 1530.6 1418.2C1426.2 1212.7 1318.2 1000.3 1347.5 759.7C1366.4 598.6 1428.5 450.7 1488.6 307.6C1515.2 244.2 1542.7 178.7 1566.2 112.6L1568.1 113.3C1544.6 179.4 1517 245 1490.4 308.4C1430.4 451.3 1368.4 599.1 1349.4 759.9C1320.2 999.9 1428 1212.1 1532.3 1417.3C1564.1 1479.8 1596.9 1544.5 1625.2 1608.6C1706 1790.3 1760.2 1974.4 1786.5 2155.8C1815.5 2355.9 1809.2 2547.2 1767.9 2724.4L1768 2724.6Z" fill="#BAD2FF" fill-opacity="0.25"/>
<path d="M1720.3 2740.7L1718.3 2740.2C1829.4 2337.1 1744.2 1873.1 1465 1361.2C1391.8 1223.9 1307 1040.8 1301 841.9C1295.4 666.6 1361.9 504.4 1426.2 347.6C1456 274.9 1486.9 199.7 1509.9 124.5L1511.9 125.1C1488.9 200.3 1458 275.6 1428.2 348.3C1364 504.9 1297.5 666.9 1303.1 841.8C1309 1040.3 1393.7 1223.1 1466.8 1360.2C1593.7 1592.9 1681.6 1819.1 1728 2032.7C1782.8 2285.2 1780.2 2523.4 1720.3 2740.7Z" fill="#BAD2FF" fill-opacity="0.25"/>
<path d="M1674.5 2755.5L1672.6 2754.8C1777.8 2455.9 1746.5 2111.9 1574.2 1672.4C1538.5 1579.2 1495.8 1488.9 1454.6 1401.5C1398 1281.7 1339.5 1157.9 1298.4 1025.1C1219.8 766.8 1311.3 524 1399.9 289.3C1418.8 239.1 1438.4 187.2 1455.8 136.4L1457.7 137.1C1440.3 187.9 1420.8 239.8 1401.8 290.1C1313.4 524.5 1222 766.9 1300.4 1024.6C1341.4 1157.2 1399.9 1281 1456.5 1400.7C1497.8 1488.1 1540.5 1578.4 1576.2 1671.7C1653.9 1870 1701.9 2045.3 1722.7 2207.7C1748.4 2407.6 1732.2 2591.9 1674.6 2755.5H1674.5Z" fill="#BAD2FF" fill-opacity="0.25"/>
<path d="M1632.21 2767.3L1630.21 2766.7C1738.81 2425.5 1694.5 2032.8 1494.9 1566C1475.4 1521 1454.41 1475.1 1434.11 1430.8C1322.71 1187.3 1207.51 935.4 1249.11 656.1C1266.01 544.7 1303.31 440.9 1339.41 340.6C1361.81 278.3 1384.91 214 1403.11 148.2L1405.11 148.7C1387.01 214.5 1363.81 278.9 1341.41 341.2C1305.41 441.5 1268.11 545.2 1251.21 656.3C1209.71 935 1324.81 1186.6 1436.11 1429.8C1456.41 1474.2 1477.4 1520 1496.9 1565C1588.2 1778.6 1645.71 1972.5 1672.61 2157.8C1704.51 2377.6 1690.91 2582.6 1632.21 2767.2V2767.3Z" fill="#BAD2FF" fill-opacity="0.25"/>
<path d="M1591.5 2776.8L1589.5 2776.2C1736.9 2292.3 1558.6 1826 1386.3 1375.1C1341 1256.6 1294.2 1134.1 1254.6 1014.3C1166.5 752.5 1247 495.2 1324.9 246.4C1333.9 217.8 1343.1 188.2 1351.9 159.3L1353.9 159.9C1345.1 188.8 1335.9 218.4 1326.9 247C1249.1 495.5 1168.7 752.5 1256.6 1013.7C1296.2 1133.5 1343 1256 1388.3 1374.5C1560.8 1825.7 1739.1 2292.4 1591.6 2777L1591.5 2776.8Z" fill="#BAD2FF" fill-opacity="0.25"/>
<path d="M1550.6 2784.5L1548.6 2784C1615.8 2530.6 1612.6 2260.7 1538.6 1959C1488.4 1749.9 1419.4 1551.2 1352.7 1359C1310.3 1236.8 1266.4 1110.5 1227.3 981.4C1149.3 724.9 1217.9 474.9 1284.2 233.1C1290 211.8 1295.9 190.5 1301.6 169.3L1303.6 169.8C1297.9 191.1 1292 212.3 1286.2 233.6C1220 475.1 1151.5 724.8 1229.3 980.7C1268.4 1109.7 1312.3 1236 1354.7 1358.2C1421.4 1550.4 1490.4 1749.2 1540.6 1958.4C1614.6 2260.5 1617.9 2530.6 1550.6 2784.4V2784.5Z" fill="#BAD2FF" fill-opacity="0.25"/>
<path d="M1507.8 2790.9L1505.8 2790.5C1610.5 2283.9 1456.7 1786.6 1308 1305.7C1274.3 1196.8 1239.5 1084.2 1208.2 973.2C1126.8 695.3 1193.1 420.6 1251.7 178.2L1253.7 178.7C1195.2 420.8 1129 695.3 1210.2 972.7C1241.5 1083.6 1276.3 1196.2 1309.9 1305.1C1384.3 1545.6 1461.2 1794.3 1504.8 2041.2C1553.8 2318.2 1554.7 2563.4 1507.7 2790.9H1507.8Z" fill="#BAD2FF" fill-opacity="0.25"/>
<path d="M1461.1 2796.3L1459.1 2796C1529.2 2282.4 1405.8 1800.6 1275.2 1290.6C1238.4 1147.1 1200.4 998.7 1167.3 850.3C1122.6 641.7 1157.6 440.4 1191.4 245.7C1194.9 225.7 1198.3 205.7 1201.7 185.6L1203.7 185.9C1200.3 206 1196.8 226 1193.3 246C1159.5 440.5 1124.6 641.6 1169.2 849.8C1202.3 998.2 1240.3 1146.6 1277.1 1290.1C1342.9 1546.8 1405 1789.2 1443.6 2038.7C1487.4 2321.5 1493 2562.2 1461 2796.2L1461.1 2796.3Z" fill="#BAD2FF" fill-opacity="0.25"/>
<path d="M1408.61 2800.6H1406.61C1432.91 2125.6 1299.31 1467 1150.91 855.8C1108.81 681.1 1125.31 508.7 1141.31 342C1146.11 292.4 1151.01 241.1 1154.21 190.5H1156.21C1152.91 241.2 1148.01 292.5 1143.31 342.2C1127.41 508.7 1110.91 681 1152.91 855.3C1301.31 1466.7 1434.91 2125.5 1408.61 2800.6Z" fill="#BAD2FF" fill-opacity="0.25"/>
<path d="M1347.6 2803.9L1345.6 2803.7C1355.9 2685.8 1344.1 2567.2 1331.2 2455.8C1296.8 2201.1 1283.1 1947.3 1269.9 1701.9C1265.2 1615.4 1260.4 1525.9 1254.7 1437.2C1246.1 1307.5 1214.9 1188.6 1181.9 1062.6C1163.3 991.6 1144.1 918.1 1129.1 842C1097.6 680.5 1103.1 523.5 1108.4 371.7C1110.5 312.8 1112.6 251.9 1112.5 191.6H1114.5C1114.5 252 1112.4 312.9 1110.4 371.8C1105.1 523.5 1099.6 680.4 1131.1 841.6C1146.1 917.6 1165.3 991 1183.9 1062.1C1216.9 1188.2 1248.1 1307.2 1256.7 1437.1C1262.4 1525.8 1267.2 1615.3 1271.9 1701.8C1285.1 1947.2 1298.8 2200.9 1333.2 2455.6C1346.2 2567.1 1358 2685.9 1347.6 2803.9Z" fill="#BAD2FF" fill-opacity="0.25"/>
<path d="M1273.11 2805.9C1268.71 2671.1 1247.71 2537.7 1227.41 2408.8C1213.01 2317.5 1198.21 2223.1 1189.11 2128.2C1172.41 1952.6 1192.51 1787.6 1216.41 1620C1242.41 1418.3 1200.21 1233.8 1155.61 1038.4C1139.61 968.5 1123.11 896.2 1109.91 823C1082.61 669.1 1080.31 516.9 1078.11 369.8C1077.21 310.6 1076.31 249.5 1073.71 189H1075.71C1078.21 249.3 1079.21 310.5 1080.11 369.7C1082.31 516.8 1084.61 668.8 1111.91 822.6C1125.11 895.8 1141.61 968 1157.51 1037.9C1202.21 1233.5 1244.41 1418.2 1218.41 1620.3C1194.51 1787.8 1174.41 1952.6 1191.11 2128C1200.11 2222.8 1215.01 2317.2 1229.41 2408.5C1249.71 2537.5 1270.71 2671 1275.11 2805.9H1273.11Z" fill="#BAD2FF" fill-opacity="0.25"/>
<path d="M1185.71 2805.8C1172.51 2722.2 1152.81 2638.1 1133.71 2556.8C1086.61 2355.9 1037.91 2148.2 1082.61 1928.5C1094.81 1868.4 1109.91 1809.5 1124.51 1752.6C1169.71 1577 1212.41 1411.2 1167.21 1224.4C1086.91 890.4 1057.01 566.5 1036.71 182.8H1038.71C1059.01 566.2 1089.01 890.1 1169.21 1223.9C1214.51 1411.2 1171.71 1577.3 1126.51 1753.1C1111.91 1810 1096.71 1868.8 1084.61 1928.9C1040.01 2148.2 1088.61 2355.7 1135.71 2556.4C1154.81 2637.7 1174.51 2721.8 1187.71 2805.5L1185.71 2805.8Z" fill="#BAD2FF" fill-opacity="0.25"/>
<path d="M1081.6 2802.3C1067.9 2755.6 1052.3 2707.4 1037.3 2660.9C961.904 2427.6 884.004 2186.4 968.004 1950.2C985.404 1900.2 1004.7 1850.1 1023.5 1801.6C1105 1590.8 1181.9 1391.7 1129.1 1156.1C1070.6 901 1046.7 648.6 1023.7 404.5C1016.6 329.3 1009.3 251.6 1001 174.5L1003 174.3C1011.3 251.4 1018.6 329.2 1025.7 404.3C1048.7 648.3 1072.6 900.6 1131.1 1155.6C1154.9 1261.6 1153.9 1371.1 1128 1490.2C1104.9 1596.5 1064.5 1701.1 1025.4 1802.3C1006.7 1850.8 987.304 1900.9 969.904 1950.8C886.104 2186.3 964.004 2427.2 1039.2 2660.2C1054.3 2706.8 1069.8 2755 1083.6 2801.7L1081.6 2802.3Z" fill="#BAD2FF" fill-opacity="0.25"/>
<path d="M960.105 2791.8C953.605 2775.6 947.005 2759.3 940.405 2743C890.205 2619.2 838.405 2491.2 811.805 2361C781.705 2213.2 789.905 2085.1 836.905 1969.3C866.205 1896.6 908.405 1827.5 949.305 1760.6C1026.41 1634.5 1106.11 1504.1 1099.01 1347.1C1088.71 1098.2 1054.11 846.3 1020.61 602.8C1000.91 459.2 980.505 310.6 965.305 164.5L967.305 164.3C982.405 310.3 1002.81 458.9 1022.61 602.5C1056.11 846.1 1090.71 1098 1101.01 1347C1108.21 1504.6 1028.31 1635.3 951.005 1761.7C910.205 1828.5 868.005 1897.5 838.805 1970.1C734.005 2228.3 844.605 2501.4 942.305 2742.3C948.905 2758.7 955.505 2775 962.005 2791.1L960.105 2791.9V2791.8Z" fill="#BAD2FF" fill-opacity="0.25"/>
<path d="M826.205 2770.3C818.905 2752.7 811.405 2735.1 804.005 2717.5C742.805 2572.7 679.505 2423 664.805 2261.9C655.205 2173.8 671.005 2087.6 713.105 1998.4C750.705 1918.7 805.705 1843.2 858.905 1770.2C889.305 1728.5 920.705 1685.4 949.005 1641.4C1026.61 1523.8 1061.41 1389.1 1055.31 1229.7C1036.11 867.2 984.605 513.5 929.005 152.9L931.005 152.6C986.605 513.2 1038.11 867 1057.31 1229.6C1063.31 1389.5 1028.41 1524.6 950.605 1642.6C922.305 1686.6 890.805 1729.8 860.405 1771.5C749.905 1923.2 645.505 2066.4 666.805 2261.8C681.405 2422.5 744.705 2572.1 805.805 2716.8C813.305 2734.4 820.705 2752 828.005 2769.6L826.105 2770.4L826.205 2770.3Z" fill="#BAD2FF" fill-opacity="0.25"/>
<path d="M690.605 2736.6C633.205 2607.4 580.005 2480.7 558.805 2349.9C534.105 2197.1 559.005 2066.3 634.905 1949.9C674.505 1888.7 720.005 1832.8 764.005 1778.7C861.105 1659.3 952.705 1546.4 978.905 1387.8C1040.11 1034.1 981.705 685.8 925.205 349C913.705 280.3 901.805 209.2 891.005 139.2L893.005 138.9C903.705 208.9 915.605 279.9 927.205 348.6C983.705 685.6 1042.21 1034 980.905 1388C954.705 1547.2 862.805 1660.2 765.605 1779.8C721.705 1833.9 676.305 1889.8 636.705 1950.9C462.505 2217.8 595.505 2517.1 692.505 2735.6L690.605 2736.4V2736.6Z" fill="#BAD2FF" fill-opacity="0.25"/>
<path d="M565.504 2694.2L564.804 2692.3C517.304 2565 468.104 2433.4 454.504 2294.7C446.204 2198.5 466.604 2103.6 516.804 2004.6C561.604 1916.2 625.704 1832.4 687.604 1751.2C710.904 1720.7 735.004 1689.2 757.804 1657.7C1061.3 1247.4 965.604 739.6 881.104 291.6C870.704 236.3 859.904 179.1 850.204 124.1L852.204 123.7C861.804 178.7 872.604 235.9 883.004 291.2C926.304 521.1 971.204 758.9 967.504 992.2C963.304 1257.1 895.204 1475.2 759.404 1658.9C736.604 1690.4 712.504 1721.9 689.204 1752.4C560.104 1921.4 438.204 2081 456.504 2294.5C470.104 2432.9 519.204 2564.4 566.704 2691.6L567.404 2693.5L565.504 2694.2Z" fill="#BAD2FF" fill-opacity="0.25"/>
<path d="M460.404 2650.5C408.904 2510.7 382.604 2388.7 379.804 2277.3C376.404 2138.6 410.804 2013.7 482.004 1906.3C509.804 1865.1 538.104 1824.8 565.504 1785.7C690.104 1608 807.904 1440.1 861.504 1221.2C956.304 833.8 886.004 458.5 805.904 107.2L807.904 106.7C847.304 279.6 885.904 466.1 901.604 658.1C918.404 863.9 905.904 1048.2 863.504 1221.7C809.804 1440.9 692.004 1609 567.204 1786.9C539.804 1826 511.504 1866.3 483.804 1907.5C354.504 2102.6 347.704 2338.5 462.404 2649.9L460.504 2650.6L460.404 2650.5Z" fill="#BAD2FF" fill-opacity="0.25"/>
<path d="M373.205 2611.7C335.105 2474.7 316.905 2354.3 317.405 2243.7C318.105 2109.1 347.705 1987.3 405.505 1881.7C432.205 1834.6 459.505 1787.7 485.905 1742.3C621.705 1508.7 749.905 1288.1 820.505 1021.7C896.105 747.6 838.205 475.2 782.205 211.8C773.605 171.4 764.705 129.7 756.505 88.7999L758.505 88.3999C766.705 129.3 775.605 171 784.205 211.4C840.305 475.1 898.205 747.7 822.505 1022.3C751.805 1289 623.505 1509.7 487.705 1743.4C461.305 1788.8 434.105 1835.7 407.405 1882.7C302.705 2073.9 292.205 2312.2 375.305 2611.1L373.305 2611.6L373.205 2611.7Z" fill="#BAD2FF" fill-opacity="0.25"/>
<path d="M302.605 2582.7C166.505 2117.9 381.105 1698 588.605 1291.9C635.805 1199.6 684.605 1104.1 727.705 1010.8C854.005 740.9 786.005 443.1 720.305 155.1C713.905 127 707.305 97.9 701.005 69.7L703.005 69.3C709.205 97.5 715.905 126.5 722.305 154.6C754.605 296.1 787.905 442.4 797.505 587.5C808.405 751.9 786.105 890.7 729.505 1011.7C686.405 1105.1 637.605 1200.6 590.405 1292.9C383.105 1698.6 168.605 2118.1 304.605 2582.1L302.605 2582.7Z" fill="#BAD2FF" fill-opacity="0.25"/>
<path d="M244.905 2564C198.105 2295.3 200.805 2033.8 252.905 1786.7C308.505 1523.3 419.605 1281.5 583.105 1067.9C805.105 778 721.605 414 647.905 92.8C644.605 78.5 641.405 64.3 638.105 50.2L640.105 49.7C643.305 63.8 646.605 78 649.905 92.3C723.705 413.9 807.305 778.5 584.705 1069.1C265.905 1485.6 149.105 2002.4 246.905 2563.6L244.905 2564Z" fill="#BAD2FF" fill-opacity="0.25"/>
<path d="M194.104 2554.8C189.904 2469.7 182.004 2381.7 174.404 2296.6C144.004 1955.7 112.504 1603.2 293.504 1289.2C329.604 1224.6 373.704 1165.9 416.404 1109.2C482.104 1021.7 544.204 939.1 580.204 836.1C668.704 578.6 624.304 308.5 566.704 31.4L568.704 31C594.004 152.6 621.604 293.9 629.704 433.7C638.504 586.3 623.004 718.2 582.204 836.8C546.104 940 484.004 1022.8 418.104 1110.4C375.504 1167.1 331.504 1225.7 295.404 1290.2C114.704 1603.7 146.104 1955.8 176.504 2296.4C184.104 2381.5 192.004 2469.6 196.204 2554.7H194.204L194.104 2554.8Z" fill="#BAD2FF" fill-opacity="0.25"/>
<path d="M145.705 2553.7C144.305 2514.9 143.605 2475.6 143.005 2437.6C141.505 2340.1 139.905 2239.4 124.105 2139.1L120.105 2111.8C80.8047 1845.6 40.2048 1570.4 143.305 1316.6C179.505 1227.7 236.605 1149.9 291.805 1074.6C337.005 1013.1 383.605 949.4 419.205 879.6C568.705 586.5 528.805 245.5 485.805 14.5001L487.805 14.1001C530.905 245.5 570.805 586.9 421.005 880.5C385.405 950.5 338.705 1014.2 293.505 1075.8C238.405 1151 181.305 1228.7 145.305 1317.3C42.4047 1570.6 83.0047 1845.6 122.205 2111.5L126.205 2138.8C141.905 2239.2 143.505 2340 145.105 2437.6C145.705 2475.6 146.305 2514.8 147.805 2553.6H145.805L145.705 2553.7Z" fill="#BAD2FF" fill-opacity="0.25"/>
</svg>
