<svg width="159" height="26" viewBox="0 0 159 26" fill="none" xmlns="http://www.w3.org/2000/svg">
<path d="M2.11328 5.98047C4.17593 4.74118 6.85333 5.40826 8.09277 7.4707L14.8252 18.6748C16.0645 20.7374 15.3967 23.414 13.334 24.6533C11.2714 25.8924 8.59489 25.2253 7.35547 23.1631L0.623047 11.959C-0.616274 9.89654 0.0508781 7.21989 2.11328 5.98047Z" fill="#014EFF"/>
<path d="M14.8086 5.97241C16.8712 4.73314 19.5486 5.40027 20.7881 7.46265L27.5205 18.6667C28.7599 20.7293 28.092 23.4059 26.0293 24.6453C23.9667 25.8844 21.2902 25.2174 20.0508 23.155L13.3184 11.9509C12.079 9.88845 12.7461 7.2118 14.8086 5.97241Z" fill="#014EFF"/>
<path d="M34.6699 0.749268C34.9229 0.659169 35.1968 0.817119 35.2451 1.0813L36.9932 10.637C37.0663 11.0382 36.5968 11.311 36.2842 11.0491L34.8359 9.83325C34.8195 9.8633 34.8043 9.89426 34.7871 9.92407L33.6973 11.8108C32.494 13.8946 29.8291 14.6086 27.7451 13.4055C25.6614 12.2024 24.9476 9.5381 26.1504 7.45435L27.2402 5.56665C27.2574 5.53699 27.2752 5.50787 27.293 5.47876L25.5166 4.83325C25.1332 4.69359 25.1351 4.15008 25.5195 4.01294L34.6699 0.749268Z" fill="white"/>
<path d="M89.252 13.1194C89.6204 12.7021 90.0381 12.3603 90.5098 12.0979C91.3801 11.6063 92.3391 11.3597 93.3867 11.3596C94.6601 11.3596 95.7809 11.6384 96.748 12.1956C97.7313 12.7527 98.5052 13.5319 99.0693 14.5315C99.6494 15.531 99.9394 16.7107 99.9395 18.0706C99.9395 19.4307 99.6496 20.611 99.0693 21.6106C98.5052 22.6101 97.7312 23.3964 96.748 23.97C95.7809 24.5271 94.6602 24.8059 93.3867 24.8059C92.2907 24.8059 91.3152 24.5602 90.4609 24.0686C89.9444 23.7713 89.4943 23.3826 89.1074 22.9055V24.634H86.2305V7.37817H89.252V13.1194ZM76.7988 11.3108C78.0559 11.3109 79.176 11.5897 80.1592 12.1467C81.1425 12.7039 81.9163 13.4911 82.4805 14.5071C83.0445 15.523 83.3271 16.7195 83.3271 18.0959C83.3271 18.2269 83.3188 18.3746 83.3027 18.5383C83.3027 18.7021 83.2944 18.8578 83.2783 19.0051H73.1475C73.2301 19.4588 73.383 19.877 73.6064 20.259C73.961 20.8651 74.461 21.3317 75.1055 21.6594C75.7502 21.9871 76.492 22.1516 77.3301 22.1516C78.0555 22.1516 78.7088 22.0363 79.2891 21.8069C79.8691 21.5775 80.3847 21.2172 80.8359 20.7258L82.4561 22.6184C81.8758 23.3066 81.1424 23.8392 80.2559 24.2161C79.3854 24.5766 78.3861 24.7571 77.2578 24.7571C75.8234 24.7571 74.5662 24.4702 73.4863 23.8967C72.4224 23.3068 71.5915 22.5036 70.9951 21.4875C70.4149 20.4716 70.125 19.3162 70.125 18.0217C70.125 16.7107 70.4075 15.5555 70.9717 14.5559C71.552 13.5399 72.3414 12.7447 73.3408 12.1711C74.3563 11.5976 75.5093 11.3108 76.7988 11.3108ZM125.185 11.3108C126.522 11.3108 127.708 11.5976 128.739 12.1711C129.787 12.7447 130.601 13.5319 131.182 14.5315C131.778 15.531 132.076 16.6945 132.076 18.0217C132.076 19.3162 131.778 20.4716 131.182 21.4875C130.601 22.5036 129.787 23.3068 128.739 23.8967C127.708 24.4703 126.522 24.7571 125.185 24.7571C123.863 24.757 122.686 24.4702 121.654 23.8967C120.623 23.3068 119.809 22.5035 119.213 21.4875C118.616 20.4715 118.318 19.3163 118.318 18.0217C118.318 16.7107 118.616 15.5555 119.213 14.5559C119.809 13.54 120.623 12.7447 121.654 12.1711C122.686 11.5976 123.863 11.3108 125.185 11.3108ZM153.122 11.3108C154.992 11.3109 156.434 11.7702 157.449 12.6877C158.481 13.589 158.997 14.99 158.997 16.8909V24.5852H156.144V22.9856C155.843 23.4444 155.435 23.823 154.911 24.1174C154.17 24.5435 153.226 24.7571 152.082 24.7571C151.115 24.7571 150.268 24.5926 149.543 24.2649C148.818 23.9208 148.254 23.4543 147.851 22.8645C147.464 22.2583 147.271 21.5781 147.271 20.8245C147.271 20.0871 147.44 19.4232 147.778 18.8333C148.133 18.2433 148.705 17.776 149.495 17.4319C150.285 17.0879 151.332 16.9153 152.638 16.9153H155.975V16.719C155.975 15.8177 155.709 15.1208 155.177 14.6292C154.645 14.1213 153.839 13.8674 152.759 13.8674C152.034 13.8674 151.316 13.9819 150.607 14.2112C149.914 14.4406 149.325 14.7605 148.842 15.1702L147.657 12.9338C148.35 12.3931 149.172 11.991 150.123 11.7288C151.09 11.4502 152.09 11.3108 153.122 11.3108ZM51.0049 20.468L55.3789 7.37817H58.2803L62.5527 20.5354L66.8877 7.37817H69.8857L64.2764 24.5852H60.9395L56.7539 11.8616L52.501 24.5852H49.1406L43.5312 7.37817H46.7949L51.0049 20.468ZM110.132 11.3108C111.163 11.3108 112.083 11.5163 112.889 11.926C113.711 12.3357 114.356 12.9665 114.823 13.8186C115.291 14.6543 115.524 15.7357 115.524 17.0627V24.5852H112.502V17.4563C112.502 16.2929 112.228 15.4244 111.68 14.8508C111.148 14.2773 110.398 13.9905 109.431 13.9905C108.722 13.9905 108.093 14.1379 107.545 14.4329C106.997 14.7278 106.57 15.1702 106.264 15.76C105.974 16.3336 105.828 17.0636 105.828 17.9485V24.5852H102.806V11.4583H105.684V13.1633C106.076 12.6867 106.558 12.2974 107.134 11.9993C108.004 11.5405 109.004 11.3108 110.132 11.3108ZM139.654 21.0403L143.8 11.3108H146.701L141.164 24.4368H138.045L132.509 11.3108H135.651L139.654 21.0403ZM152.855 18.9563C151.824 18.9563 151.131 19.1279 150.776 19.4719C150.422 19.7997 150.244 20.2098 150.244 20.7014C150.244 21.2584 150.462 21.7009 150.897 22.0286C151.333 22.3562 151.937 22.5198 152.711 22.5198C153.452 22.5197 154.113 22.3482 154.693 22.0042C155.29 21.66 155.717 21.1516 155.975 20.4797V18.9563H152.855ZM93.0488 13.9661C92.3235 13.9661 91.6701 14.1295 91.0898 14.4573C90.5096 14.785 90.0504 15.2604 89.7119 15.8831C89.3734 16.4894 89.2041 17.2185 89.2041 18.0706C89.2041 18.9062 89.3735 19.6354 89.7119 20.2581C90.0504 20.8807 90.5097 21.3561 91.0898 21.6838C91.6701 22.0116 92.3235 22.176 93.0488 22.176C93.774 22.176 94.4184 22.0115 94.9824 21.6838C95.5627 21.3561 96.0228 20.8808 96.3613 20.2581C96.6997 19.6354 96.8691 18.9061 96.8691 18.0706C96.8691 17.2186 96.6998 16.4893 96.3613 15.8831C96.0228 15.2603 95.5627 14.785 94.9824 14.4573C94.4184 14.1297 93.7739 13.9661 93.0488 13.9661ZM125.209 13.9163C124.468 13.9163 123.807 14.0807 123.227 14.4084C122.662 14.7362 122.211 15.2115 121.872 15.8342C121.534 16.4405 121.364 17.1697 121.364 18.0217C121.364 18.8574 121.534 19.5866 121.872 20.2092C122.211 20.832 122.662 21.3073 123.227 21.635C123.807 21.9627 124.459 22.1272 125.185 22.1272C125.926 22.1272 126.588 21.9628 127.168 21.635C127.748 21.3073 128.199 20.8318 128.521 20.2092C128.86 19.5865 129.029 18.8574 129.029 18.0217C129.029 17.1696 128.86 16.4405 128.521 15.8342C128.199 15.2116 127.748 14.7362 127.168 14.4084C126.588 14.0807 125.934 13.9163 125.209 13.9163ZM76.7988 13.7688C76.0573 13.7688 75.404 13.9332 74.8398 14.261C74.2919 14.5887 73.8565 15.0472 73.5342 15.637C73.3246 16.0295 73.1892 16.4727 73.123 16.9651H80.4668C80.4081 16.4693 80.2661 16.0182 80.0381 15.6125C79.7158 15.0393 79.2729 14.5887 78.709 14.261C78.161 13.9333 77.524 13.7689 76.7988 13.7688Z" fill="white"/>
</svg>
